<?xml version="1.0" encoding="utf-8" standalone="no"?>
<!DOCTYPE svg PUBLIC "-//W3C//DTD SVG 1.1//EN"
  "http://www.w3.org/Graphics/SVG/1.1/DTD/svg11.dtd">
<svg xmlns:xlink="http://www.w3.org/1999/xlink" width="576pt" height="432pt" viewBox="0 0 576 432" xmlns="http://www.w3.org/2000/svg" version="1.1">
 <metadata>
  <rdf:RDF xmlns:dc="http://purl.org/dc/elements/1.1/" xmlns:cc="http://creativecommons.org/ns#" xmlns:rdf="http://www.w3.org/1999/02/22-rdf-syntax-ns#">
   <cc:Work>
    <dc:type rdf:resource="http://purl.org/dc/dcmitype/StillImage"/>
    <dc:date>2025-01-21T19:59:24.141628</dc:date>
    <dc:format>image/svg+xml</dc:format>
    <dc:creator>
     <cc:Agent>
      <dc:title>Matplotlib v3.7.3, https://matplotlib.org/</dc:title>
     </cc:Agent>
    </dc:creator>
   </cc:Work>
  </rdf:RDF>
 </metadata>
 <defs>
  <style type="text/css">*{stroke-linejoin: round; stroke-linecap: butt}</style>
 </defs>
 <g id="figure_1">
  <g id="patch_1">
   <path d="M 0 432 
L 576 432 
L 576 0 
L 0 0 
z
" style="fill: #ffffff"/>
  </g>
  <g id="axes_1">
   <g id="patch_2">
    <path d="M 72 384.48 
L 518.4 384.48 
L 518.4 51.84 
L 72 51.84 
z
" style="fill: #ffffff"/>
   </g>
   <g id="matplotlib.axis_1">
    <g id="xtick_1">
     <g id="line2d_1">
      <defs>
       <path id="m08a42118a1" d="M 0 0 
L 0 4 
" style="stroke: #000000"/>
      </defs>
      <g>
       <use xlink:href="#m08a42118a1" x="92.290909" y="384.48" style="stroke: #000000"/>
      </g>
     </g>
     <g id="text_1">
      <!-- 01-2023 -->
      <g transform="translate(70.408606 416.787074) rotate(-45) scale(0.08 -0.08)">
       <defs>
        <path id="ArialMT-30" d="M 266 2259 
Q 266 3072 433 3567 
Q 600 4063 929 4331 
Q 1259 4600 1759 4600 
Q 2128 4600 2406 4451 
Q 2684 4303 2865 4023 
Q 3047 3744 3150 3342 
Q 3253 2941 3253 2259 
Q 3253 1453 3087 958 
Q 2922 463 2592 192 
Q 2263 -78 1759 -78 
Q 1097 -78 719 397 
Q 266 969 266 2259 
z
M 844 2259 
Q 844 1131 1108 757 
Q 1372 384 1759 384 
Q 2147 384 2411 759 
Q 2675 1134 2675 2259 
Q 2675 3391 2411 3762 
Q 2147 4134 1753 4134 
Q 1366 4134 1134 3806 
Q 844 3388 844 2259 
z
" transform="scale(0.015625)"/>
        <path id="ArialMT-31" d="M 2384 0 
L 1822 0 
L 1822 3584 
Q 1619 3391 1289 3197 
Q 959 3003 697 2906 
L 697 3450 
Q 1169 3672 1522 3987 
Q 1875 4303 2022 4600 
L 2384 4600 
L 2384 0 
z
" transform="scale(0.015625)"/>
        <path id="ArialMT-2d" d="M 203 1375 
L 203 1941 
L 1931 1941 
L 1931 1375 
L 203 1375 
z
" transform="scale(0.015625)"/>
        <path id="ArialMT-32" d="M 3222 541 
L 3222 0 
L 194 0 
Q 188 203 259 391 
Q 375 700 629 1000 
Q 884 1300 1366 1694 
Q 2113 2306 2375 2664 
Q 2638 3022 2638 3341 
Q 2638 3675 2398 3904 
Q 2159 4134 1775 4134 
Q 1369 4134 1125 3890 
Q 881 3647 878 3216 
L 300 3275 
Q 359 3922 746 4261 
Q 1134 4600 1788 4600 
Q 2447 4600 2831 4234 
Q 3216 3869 3216 3328 
Q 3216 3053 3103 2787 
Q 2991 2522 2730 2228 
Q 2469 1934 1863 1422 
Q 1356 997 1212 845 
Q 1069 694 975 541 
L 3222 541 
z
" transform="scale(0.015625)"/>
        <path id="ArialMT-33" d="M 269 1209 
L 831 1284 
Q 928 806 1161 595 
Q 1394 384 1728 384 
Q 2125 384 2398 659 
Q 2672 934 2672 1341 
Q 2672 1728 2419 1979 
Q 2166 2231 1775 2231 
Q 1616 2231 1378 2169 
L 1441 2663 
Q 1497 2656 1531 2656 
Q 1891 2656 2178 2843 
Q 2466 3031 2466 3422 
Q 2466 3731 2256 3934 
Q 2047 4138 1716 4138 
Q 1388 4138 1169 3931 
Q 950 3725 888 3313 
L 325 3413 
Q 428 3978 793 4289 
Q 1159 4600 1703 4600 
Q 2078 4600 2393 4439 
Q 2709 4278 2876 4000 
Q 3044 3722 3044 3409 
Q 3044 3113 2884 2869 
Q 2725 2625 2413 2481 
Q 2819 2388 3044 2092 
Q 3269 1797 3269 1353 
Q 3269 753 2831 336 
Q 2394 -81 1725 -81 
Q 1122 -81 723 278 
Q 325 638 269 1209 
z
" transform="scale(0.015625)"/>
       </defs>
       <use xlink:href="#ArialMT-30"/>
       <use xlink:href="#ArialMT-31" x="55.615234"/>
       <use xlink:href="#ArialMT-2d" x="111.230469"/>
       <use xlink:href="#ArialMT-32" x="144.53125"/>
       <use xlink:href="#ArialMT-30" x="200.146484"/>
       <use xlink:href="#ArialMT-32" x="255.761719"/>
       <use xlink:href="#ArialMT-33" x="311.376953"/>
      </g>
     </g>
    </g>
    <g id="xtick_2">
     <g id="line2d_2">
      <g>
       <use xlink:href="#m08a42118a1" x="126.947558" y="384.48" style="stroke: #000000"/>
      </g>
     </g>
     <g id="text_2">
      <!-- 02-2023 -->
      <g transform="translate(105.065255 416.787074) rotate(-45) scale(0.08 -0.08)">
       <use xlink:href="#ArialMT-30"/>
       <use xlink:href="#ArialMT-32" x="55.615234"/>
       <use xlink:href="#ArialMT-2d" x="111.230469"/>
       <use xlink:href="#ArialMT-32" x="144.53125"/>
       <use xlink:href="#ArialMT-30" x="200.146484"/>
       <use xlink:href="#ArialMT-32" x="255.761719"/>
       <use xlink:href="#ArialMT-33" x="311.376953"/>
      </g>
     </g>
    </g>
    <g id="xtick_3">
     <g id="line2d_3">
      <g>
       <use xlink:href="#m08a42118a1" x="158.250338" y="384.48" style="stroke: #000000"/>
      </g>
     </g>
     <g id="text_3">
      <!-- 03-2023 -->
      <g transform="translate(136.368035 416.787074) rotate(-45) scale(0.08 -0.08)">
       <use xlink:href="#ArialMT-30"/>
       <use xlink:href="#ArialMT-33" x="55.615234"/>
       <use xlink:href="#ArialMT-2d" x="111.230469"/>
       <use xlink:href="#ArialMT-32" x="144.53125"/>
       <use xlink:href="#ArialMT-30" x="200.146484"/>
       <use xlink:href="#ArialMT-32" x="255.761719"/>
       <use xlink:href="#ArialMT-33" x="311.376953"/>
      </g>
     </g>
    </g>
    <g id="xtick_4">
     <g id="line2d_4">
      <g>
       <use xlink:href="#m08a42118a1" x="192.906987" y="384.48" style="stroke: #000000"/>
      </g>
     </g>
     <g id="text_4">
      <!-- 04-2023 -->
      <g transform="translate(171.024684 416.787074) rotate(-45) scale(0.08 -0.08)">
       <defs>
        <path id="ArialMT-34" d="M 2069 0 
L 2069 1097 
L 81 1097 
L 81 1613 
L 2172 4581 
L 2631 4581 
L 2631 1613 
L 3250 1613 
L 3250 1097 
L 2631 1097 
L 2631 0 
L 2069 0 
z
M 2069 1613 
L 2069 3678 
L 634 1613 
L 2069 1613 
z
" transform="scale(0.015625)"/>
       </defs>
       <use xlink:href="#ArialMT-30"/>
       <use xlink:href="#ArialMT-34" x="55.615234"/>
       <use xlink:href="#ArialMT-2d" x="111.230469"/>
       <use xlink:href="#ArialMT-32" x="144.53125"/>
       <use xlink:href="#ArialMT-30" x="200.146484"/>
       <use xlink:href="#ArialMT-32" x="255.761719"/>
       <use xlink:href="#ArialMT-33" x="311.376953"/>
      </g>
     </g>
    </g>
    <g id="xtick_5">
     <g id="line2d_5">
      <g>
       <use xlink:href="#m08a42118a1" x="226.44568" y="384.48" style="stroke: #000000"/>
      </g>
     </g>
     <g id="text_5">
      <!-- 05-2023 -->
      <g transform="translate(204.563377 416.787074) rotate(-45) scale(0.08 -0.08)">
       <defs>
        <path id="ArialMT-35" d="M 266 1200 
L 856 1250 
Q 922 819 1161 601 
Q 1400 384 1738 384 
Q 2144 384 2425 690 
Q 2706 997 2706 1503 
Q 2706 1984 2436 2262 
Q 2166 2541 1728 2541 
Q 1456 2541 1237 2417 
Q 1019 2294 894 2097 
L 366 2166 
L 809 4519 
L 3088 4519 
L 3088 3981 
L 1259 3981 
L 1013 2750 
Q 1425 3038 1878 3038 
Q 2478 3038 2890 2622 
Q 3303 2206 3303 1553 
Q 3303 931 2941 478 
Q 2500 -78 1738 -78 
Q 1113 -78 717 272 
Q 322 622 266 1200 
z
" transform="scale(0.015625)"/>
       </defs>
       <use xlink:href="#ArialMT-30"/>
       <use xlink:href="#ArialMT-35" x="55.615234"/>
       <use xlink:href="#ArialMT-2d" x="111.230469"/>
       <use xlink:href="#ArialMT-32" x="144.53125"/>
       <use xlink:href="#ArialMT-30" x="200.146484"/>
       <use xlink:href="#ArialMT-32" x="255.761719"/>
       <use xlink:href="#ArialMT-33" x="311.376953"/>
      </g>
     </g>
    </g>
    <g id="xtick_6">
     <g id="line2d_6">
      <g>
       <use xlink:href="#m08a42118a1" x="261.102329" y="384.48" style="stroke: #000000"/>
      </g>
     </g>
     <g id="text_6">
      <!-- 06-2023 -->
      <g transform="translate(239.220026 416.787074) rotate(-45) scale(0.08 -0.08)">
       <defs>
        <path id="ArialMT-36" d="M 3184 3459 
L 2625 3416 
Q 2550 3747 2413 3897 
Q 2184 4138 1850 4138 
Q 1581 4138 1378 3988 
Q 1113 3794 959 3422 
Q 806 3050 800 2363 
Q 1003 2672 1297 2822 
Q 1591 2972 1913 2972 
Q 2475 2972 2870 2558 
Q 3266 2144 3266 1488 
Q 3266 1056 3080 686 
Q 2894 316 2569 119 
Q 2244 -78 1831 -78 
Q 1128 -78 684 439 
Q 241 956 241 2144 
Q 241 3472 731 4075 
Q 1159 4600 1884 4600 
Q 2425 4600 2770 4297 
Q 3116 3994 3184 3459 
z
M 888 1484 
Q 888 1194 1011 928 
Q 1134 663 1356 523 
Q 1578 384 1822 384 
Q 2178 384 2434 671 
Q 2691 959 2691 1453 
Q 2691 1928 2437 2201 
Q 2184 2475 1800 2475 
Q 1419 2475 1153 2201 
Q 888 1928 888 1484 
z
" transform="scale(0.015625)"/>
       </defs>
       <use xlink:href="#ArialMT-30"/>
       <use xlink:href="#ArialMT-36" x="55.615234"/>
       <use xlink:href="#ArialMT-2d" x="111.230469"/>
       <use xlink:href="#ArialMT-32" x="144.53125"/>
       <use xlink:href="#ArialMT-30" x="200.146484"/>
       <use xlink:href="#ArialMT-32" x="255.761719"/>
       <use xlink:href="#ArialMT-33" x="311.376953"/>
      </g>
     </g>
    </g>
    <g id="xtick_7">
     <g id="line2d_7">
      <g>
       <use xlink:href="#m08a42118a1" x="294.641022" y="384.48" style="stroke: #000000"/>
      </g>
     </g>
     <g id="text_7">
      <!-- 07-2023 -->
      <g transform="translate(272.758719 416.787074) rotate(-45) scale(0.08 -0.08)">
       <defs>
        <path id="ArialMT-37" d="M 303 3981 
L 303 4522 
L 3269 4522 
L 3269 4084 
Q 2831 3619 2401 2847 
Q 1972 2075 1738 1259 
Q 1569 684 1522 0 
L 944 0 
Q 953 541 1156 1306 
Q 1359 2072 1739 2783 
Q 2119 3494 2547 3981 
L 303 3981 
z
" transform="scale(0.015625)"/>
       </defs>
       <use xlink:href="#ArialMT-30"/>
       <use xlink:href="#ArialMT-37" x="55.615234"/>
       <use xlink:href="#ArialMT-2d" x="111.230469"/>
       <use xlink:href="#ArialMT-32" x="144.53125"/>
       <use xlink:href="#ArialMT-30" x="200.146484"/>
       <use xlink:href="#ArialMT-32" x="255.761719"/>
       <use xlink:href="#ArialMT-33" x="311.376953"/>
      </g>
     </g>
    </g>
    <g id="xtick_8">
     <g id="line2d_8">
      <g>
       <use xlink:href="#m08a42118a1" x="329.297671" y="384.48" style="stroke: #000000"/>
      </g>
     </g>
     <g id="text_8">
      <!-- 08-2023 -->
      <g transform="translate(307.415368 416.787074) rotate(-45) scale(0.08 -0.08)">
       <defs>
        <path id="ArialMT-38" d="M 1131 2484 
Q 781 2613 612 2850 
Q 444 3088 444 3419 
Q 444 3919 803 4259 
Q 1163 4600 1759 4600 
Q 2359 4600 2725 4251 
Q 3091 3903 3091 3403 
Q 3091 3084 2923 2848 
Q 2756 2613 2416 2484 
Q 2838 2347 3058 2040 
Q 3278 1734 3278 1309 
Q 3278 722 2862 322 
Q 2447 -78 1769 -78 
Q 1091 -78 675 323 
Q 259 725 259 1325 
Q 259 1772 486 2073 
Q 713 2375 1131 2484 
z
M 1019 3438 
Q 1019 3113 1228 2906 
Q 1438 2700 1772 2700 
Q 2097 2700 2305 2904 
Q 2513 3109 2513 3406 
Q 2513 3716 2298 3927 
Q 2084 4138 1766 4138 
Q 1444 4138 1231 3931 
Q 1019 3725 1019 3438 
z
M 838 1322 
Q 838 1081 952 856 
Q 1066 631 1291 507 
Q 1516 384 1775 384 
Q 2178 384 2440 643 
Q 2703 903 2703 1303 
Q 2703 1709 2433 1975 
Q 2163 2241 1756 2241 
Q 1359 2241 1098 1978 
Q 838 1716 838 1322 
z
" transform="scale(0.015625)"/>
       </defs>
       <use xlink:href="#ArialMT-30"/>
       <use xlink:href="#ArialMT-38" x="55.615234"/>
       <use xlink:href="#ArialMT-2d" x="111.230469"/>
       <use xlink:href="#ArialMT-32" x="144.53125"/>
       <use xlink:href="#ArialMT-30" x="200.146484"/>
       <use xlink:href="#ArialMT-32" x="255.761719"/>
       <use xlink:href="#ArialMT-33" x="311.376953"/>
      </g>
     </g>
    </g>
    <g id="xtick_9">
     <g id="line2d_9">
      <g>
       <use xlink:href="#m08a42118a1" x="363.95432" y="384.48" style="stroke: #000000"/>
      </g>
     </g>
     <g id="text_9">
      <!-- 09-2023 -->
      <g transform="translate(342.072017 416.787074) rotate(-45) scale(0.08 -0.08)">
       <defs>
        <path id="ArialMT-39" d="M 350 1059 
L 891 1109 
Q 959 728 1153 556 
Q 1347 384 1650 384 
Q 1909 384 2104 503 
Q 2300 622 2425 820 
Q 2550 1019 2634 1356 
Q 2719 1694 2719 2044 
Q 2719 2081 2716 2156 
Q 2547 1888 2255 1720 
Q 1963 1553 1622 1553 
Q 1053 1553 659 1965 
Q 266 2378 266 3053 
Q 266 3750 677 4175 
Q 1088 4600 1706 4600 
Q 2153 4600 2523 4359 
Q 2894 4119 3086 3673 
Q 3278 3228 3278 2384 
Q 3278 1506 3087 986 
Q 2897 466 2520 194 
Q 2144 -78 1638 -78 
Q 1100 -78 759 220 
Q 419 519 350 1059 
z
M 2653 3081 
Q 2653 3566 2395 3850 
Q 2138 4134 1775 4134 
Q 1400 4134 1122 3828 
Q 844 3522 844 3034 
Q 844 2597 1108 2323 
Q 1372 2050 1759 2050 
Q 2150 2050 2401 2323 
Q 2653 2597 2653 3081 
z
" transform="scale(0.015625)"/>
       </defs>
       <use xlink:href="#ArialMT-30"/>
       <use xlink:href="#ArialMT-39" x="55.615234"/>
       <use xlink:href="#ArialMT-2d" x="111.230469"/>
       <use xlink:href="#ArialMT-32" x="144.53125"/>
       <use xlink:href="#ArialMT-30" x="200.146484"/>
       <use xlink:href="#ArialMT-32" x="255.761719"/>
       <use xlink:href="#ArialMT-33" x="311.376953"/>
      </g>
     </g>
    </g>
    <g id="xtick_10">
     <g id="line2d_10">
      <g>
       <use xlink:href="#m08a42118a1" x="397.493013" y="384.48" style="stroke: #000000"/>
      </g>
     </g>
     <g id="text_10">
      <!-- 10-2023 -->
      <g transform="translate(375.61071 416.787074) rotate(-45) scale(0.08 -0.08)">
       <use xlink:href="#ArialMT-31"/>
       <use xlink:href="#ArialMT-30" x="55.615234"/>
       <use xlink:href="#ArialMT-2d" x="111.230469"/>
       <use xlink:href="#ArialMT-32" x="144.53125"/>
       <use xlink:href="#ArialMT-30" x="200.146484"/>
       <use xlink:href="#ArialMT-32" x="255.761719"/>
       <use xlink:href="#ArialMT-33" x="311.376953"/>
      </g>
     </g>
    </g>
    <g id="xtick_11">
     <g id="line2d_11">
      <g>
       <use xlink:href="#m08a42118a1" x="432.149662" y="384.48" style="stroke: #000000"/>
      </g>
     </g>
     <g id="text_11">
      <!-- 11-2023 -->
      <g transform="translate(410.684552 416.369881) rotate(-45) scale(0.08 -0.08)">
       <use xlink:href="#ArialMT-31"/>
       <use xlink:href="#ArialMT-31" x="48.240234"/>
       <use xlink:href="#ArialMT-2d" x="103.855469"/>
       <use xlink:href="#ArialMT-32" x="137.15625"/>
       <use xlink:href="#ArialMT-30" x="192.771484"/>
       <use xlink:href="#ArialMT-32" x="248.386719"/>
       <use xlink:href="#ArialMT-33" x="304.001953"/>
      </g>
     </g>
    </g>
    <g id="xtick_12">
     <g id="line2d_12">
      <g>
       <use xlink:href="#m08a42118a1" x="465.688355" y="384.48" style="stroke: #000000"/>
      </g>
     </g>
     <g id="text_12">
      <!-- 12-2023 -->
      <g transform="translate(443.806051 416.787074) rotate(-45) scale(0.08 -0.08)">
       <use xlink:href="#ArialMT-31"/>
       <use xlink:href="#ArialMT-32" x="55.615234"/>
       <use xlink:href="#ArialMT-2d" x="111.230469"/>
       <use xlink:href="#ArialMT-32" x="144.53125"/>
       <use xlink:href="#ArialMT-30" x="200.146484"/>
       <use xlink:href="#ArialMT-32" x="255.761719"/>
       <use xlink:href="#ArialMT-33" x="311.376953"/>
      </g>
     </g>
    </g>
    <g id="xtick_13">
     <g id="line2d_13">
      <g>
       <use xlink:href="#m08a42118a1" x="500.345004" y="384.48" style="stroke: #000000"/>
      </g>
     </g>
     <g id="text_13">
      <!-- 01-2024 -->
      <g transform="translate(478.462701 416.787074) rotate(-45) scale(0.08 -0.08)">
       <use xlink:href="#ArialMT-30"/>
       <use xlink:href="#ArialMT-31" x="55.615234"/>
       <use xlink:href="#ArialMT-2d" x="111.230469"/>
       <use xlink:href="#ArialMT-32" x="144.53125"/>
       <use xlink:href="#ArialMT-30" x="200.146484"/>
       <use xlink:href="#ArialMT-32" x="255.761719"/>
       <use xlink:href="#ArialMT-34" x="311.376953"/>
      </g>
     </g>
    </g>
   </g>
   <g id="matplotlib.axis_2">
    <g id="ytick_1">
     <g id="line2d_14"/>
     <g id="text_14">
      <!-- 0 -->
      <g style="fill: #262626" transform="translate(62.939062 388.058906) scale(0.1 -0.1)">
       <use xlink:href="#ArialMT-30"/>
      </g>
     </g>
    </g>
    <g id="ytick_2">
     <g id="line2d_15"/>
     <g id="text_15">
      <!-- 5 -->
      <g style="fill: #262626" transform="translate(62.939062 370.400711) scale(0.1 -0.1)">
       <use xlink:href="#ArialMT-35"/>
      </g>
     </g>
    </g>
    <g id="ytick_3">
     <g id="line2d_16"/>
     <g id="text_16">
      <!-- 10 -->
      <g style="fill: #262626" transform="translate(57.378125 352.742515) scale(0.1 -0.1)">
       <use xlink:href="#ArialMT-31"/>
       <use xlink:href="#ArialMT-30" x="55.615234"/>
      </g>
     </g>
    </g>
    <g id="ytick_4">
     <g id="line2d_17"/>
     <g id="text_17">
      <!-- 15 -->
      <g style="fill: #262626" transform="translate(57.378125 335.08432) scale(0.1 -0.1)">
       <use xlink:href="#ArialMT-31"/>
       <use xlink:href="#ArialMT-35" x="55.615234"/>
      </g>
     </g>
    </g>
    <g id="ytick_5">
     <g id="line2d_18"/>
     <g id="text_18">
      <!-- 20 -->
      <g style="fill: #262626" transform="translate(57.378125 317.426124) scale(0.1 -0.1)">
       <use xlink:href="#ArialMT-32"/>
       <use xlink:href="#ArialMT-30" x="55.615234"/>
      </g>
     </g>
    </g>
    <g id="ytick_6">
     <g id="line2d_19"/>
     <g id="text_19">
      <!-- 25 -->
      <g style="fill: #262626" transform="translate(57.378125 299.767928) scale(0.1 -0.1)">
       <use xlink:href="#ArialMT-32"/>
       <use xlink:href="#ArialMT-35" x="55.615234"/>
      </g>
     </g>
    </g>
    <g id="ytick_7">
     <g id="line2d_20"/>
     <g id="text_20">
      <!-- 30 -->
      <g style="fill: #262626" transform="translate(57.378125 282.109733) scale(0.1 -0.1)">
       <use xlink:href="#ArialMT-33"/>
       <use xlink:href="#ArialMT-30" x="55.615234"/>
      </g>
     </g>
    </g>
    <g id="ytick_8">
     <g id="line2d_21"/>
     <g id="text_21">
      <!-- 35 -->
      <g style="fill: #262626" transform="translate(57.378125 264.451537) scale(0.1 -0.1)">
       <use xlink:href="#ArialMT-33"/>
       <use xlink:href="#ArialMT-35" x="55.615234"/>
      </g>
     </g>
    </g>
    <g id="ytick_9">
     <g id="line2d_22"/>
     <g id="text_22">
      <!-- 40 -->
      <g style="fill: #262626" transform="translate(57.378125 246.793342) scale(0.1 -0.1)">
       <use xlink:href="#ArialMT-34"/>
       <use xlink:href="#ArialMT-30" x="55.615234"/>
      </g>
     </g>
    </g>
    <g id="ytick_10">
     <g id="line2d_23"/>
     <g id="text_23">
      <!-- 45 -->
      <g style="fill: #262626" transform="translate(57.378125 229.135146) scale(0.1 -0.1)">
       <use xlink:href="#ArialMT-34"/>
       <use xlink:href="#ArialMT-35" x="55.615234"/>
      </g>
     </g>
    </g>
    <g id="ytick_11">
     <g id="line2d_24"/>
     <g id="text_24">
      <!-- 50 -->
      <g style="fill: #262626" transform="translate(57.378125 211.476951) scale(0.1 -0.1)">
       <use xlink:href="#ArialMT-35"/>
       <use xlink:href="#ArialMT-30" x="55.615234"/>
      </g>
     </g>
    </g>
    <g id="ytick_12">
     <g id="line2d_25"/>
     <g id="text_25">
      <!-- 55 -->
      <g style="fill: #262626" transform="translate(57.378125 193.818755) scale(0.1 -0.1)">
       <use xlink:href="#ArialMT-35"/>
       <use xlink:href="#ArialMT-35" x="55.615234"/>
      </g>
     </g>
    </g>
    <g id="ytick_13">
     <g id="line2d_26"/>
     <g id="text_26">
      <!-- 60 -->
      <g style="fill: #262626" transform="translate(57.378125 176.16056) scale(0.1 -0.1)">
       <use xlink:href="#ArialMT-36"/>
       <use xlink:href="#ArialMT-30" x="55.615234"/>
      </g>
     </g>
    </g>
    <g id="ytick_14">
     <g id="line2d_27"/>
     <g id="text_27">
      <!-- 65 -->
      <g style="fill: #262626" transform="translate(57.378125 158.502364) scale(0.1 -0.1)">
       <use xlink:href="#ArialMT-36"/>
       <use xlink:href="#ArialMT-35" x="55.615234"/>
      </g>
     </g>
    </g>
    <g id="ytick_15">
     <g id="line2d_28"/>
     <g id="text_28">
      <!-- 70 -->
      <g style="fill: #262626" transform="translate(57.378125 140.844168) scale(0.1 -0.1)">
       <use xlink:href="#ArialMT-37"/>
       <use xlink:href="#ArialMT-30" x="55.615234"/>
      </g>
     </g>
    </g>
    <g id="ytick_16">
     <g id="line2d_29"/>
     <g id="text_29">
      <!-- 75 -->
      <g style="fill: #262626" transform="translate(57.378125 123.185973) scale(0.1 -0.1)">
       <use xlink:href="#ArialMT-37"/>
       <use xlink:href="#ArialMT-35" x="55.615234"/>
      </g>
     </g>
    </g>
    <g id="ytick_17">
     <g id="line2d_30"/>
     <g id="text_30">
      <!-- 80 -->
      <g style="fill: #262626" transform="translate(57.378125 105.527777) scale(0.1 -0.1)">
       <use xlink:href="#ArialMT-38"/>
       <use xlink:href="#ArialMT-30" x="55.615234"/>
      </g>
     </g>
    </g>
    <g id="text_31">
     <!-- Concentrazione PM10 (µg/m³) -->
     <g style="fill: #262626" transform="translate(51.273437 285.22875) rotate(-90) scale(0.1 -0.1)">
      <defs>
       <path id="ArialMT-43" d="M 3763 1606 
L 4369 1453 
Q 4178 706 3683 314 
Q 3188 -78 2472 -78 
Q 1731 -78 1267 223 
Q 803 525 561 1097 
Q 319 1669 319 2325 
Q 319 3041 592 3573 
Q 866 4106 1370 4382 
Q 1875 4659 2481 4659 
Q 3169 4659 3637 4309 
Q 4106 3959 4291 3325 
L 3694 3184 
Q 3534 3684 3231 3912 
Q 2928 4141 2469 4141 
Q 1941 4141 1586 3887 
Q 1231 3634 1087 3207 
Q 944 2781 944 2328 
Q 944 1744 1114 1308 
Q 1284 872 1643 656 
Q 2003 441 2422 441 
Q 2931 441 3284 734 
Q 3638 1028 3763 1606 
z
" transform="scale(0.015625)"/>
       <path id="ArialMT-6f" d="M 213 1659 
Q 213 2581 725 3025 
Q 1153 3394 1769 3394 
Q 2453 3394 2887 2945 
Q 3322 2497 3322 1706 
Q 3322 1066 3130 698 
Q 2938 331 2570 128 
Q 2203 -75 1769 -75 
Q 1072 -75 642 372 
Q 213 819 213 1659 
z
M 791 1659 
Q 791 1022 1069 705 
Q 1347 388 1769 388 
Q 2188 388 2466 706 
Q 2744 1025 2744 1678 
Q 2744 2294 2464 2611 
Q 2184 2928 1769 2928 
Q 1347 2928 1069 2612 
Q 791 2297 791 1659 
z
" transform="scale(0.015625)"/>
       <path id="ArialMT-6e" d="M 422 0 
L 422 3319 
L 928 3319 
L 928 2847 
Q 1294 3394 1984 3394 
Q 2284 3394 2536 3286 
Q 2788 3178 2913 3003 
Q 3038 2828 3088 2588 
Q 3119 2431 3119 2041 
L 3119 0 
L 2556 0 
L 2556 2019 
Q 2556 2363 2490 2533 
Q 2425 2703 2258 2804 
Q 2091 2906 1866 2906 
Q 1506 2906 1245 2678 
Q 984 2450 984 1813 
L 984 0 
L 422 0 
z
" transform="scale(0.015625)"/>
       <path id="ArialMT-63" d="M 2588 1216 
L 3141 1144 
Q 3050 572 2676 248 
Q 2303 -75 1759 -75 
Q 1078 -75 664 370 
Q 250 816 250 1647 
Q 250 2184 428 2587 
Q 606 2991 970 3192 
Q 1334 3394 1763 3394 
Q 2303 3394 2647 3120 
Q 2991 2847 3088 2344 
L 2541 2259 
Q 2463 2594 2264 2762 
Q 2066 2931 1784 2931 
Q 1359 2931 1093 2626 
Q 828 2322 828 1663 
Q 828 994 1084 691 
Q 1341 388 1753 388 
Q 2084 388 2306 591 
Q 2528 794 2588 1216 
z
" transform="scale(0.015625)"/>
       <path id="ArialMT-65" d="M 2694 1069 
L 3275 997 
Q 3138 488 2766 206 
Q 2394 -75 1816 -75 
Q 1088 -75 661 373 
Q 234 822 234 1631 
Q 234 2469 665 2931 
Q 1097 3394 1784 3394 
Q 2450 3394 2872 2941 
Q 3294 2488 3294 1666 
Q 3294 1616 3291 1516 
L 816 1516 
Q 847 969 1125 678 
Q 1403 388 1819 388 
Q 2128 388 2347 550 
Q 2566 713 2694 1069 
z
M 847 1978 
L 2700 1978 
Q 2663 2397 2488 2606 
Q 2219 2931 1791 2931 
Q 1403 2931 1139 2672 
Q 875 2413 847 1978 
z
" transform="scale(0.015625)"/>
       <path id="ArialMT-74" d="M 1650 503 
L 1731 6 
Q 1494 -44 1306 -44 
Q 1000 -44 831 53 
Q 663 150 594 308 
Q 525 466 525 972 
L 525 2881 
L 113 2881 
L 113 3319 
L 525 3319 
L 525 4141 
L 1084 4478 
L 1084 3319 
L 1650 3319 
L 1650 2881 
L 1084 2881 
L 1084 941 
Q 1084 700 1114 631 
Q 1144 563 1211 522 
Q 1278 481 1403 481 
Q 1497 481 1650 503 
z
" transform="scale(0.015625)"/>
       <path id="ArialMT-72" d="M 416 0 
L 416 3319 
L 922 3319 
L 922 2816 
Q 1116 3169 1280 3281 
Q 1444 3394 1641 3394 
Q 1925 3394 2219 3213 
L 2025 2691 
Q 1819 2813 1613 2813 
Q 1428 2813 1281 2702 
Q 1134 2591 1072 2394 
Q 978 2094 978 1738 
L 978 0 
L 416 0 
z
" transform="scale(0.015625)"/>
       <path id="ArialMT-61" d="M 2588 409 
Q 2275 144 1986 34 
Q 1697 -75 1366 -75 
Q 819 -75 525 192 
Q 231 459 231 875 
Q 231 1119 342 1320 
Q 453 1522 633 1644 
Q 813 1766 1038 1828 
Q 1203 1872 1538 1913 
Q 2219 1994 2541 2106 
Q 2544 2222 2544 2253 
Q 2544 2597 2384 2738 
Q 2169 2928 1744 2928 
Q 1347 2928 1158 2789 
Q 969 2650 878 2297 
L 328 2372 
Q 403 2725 575 2942 
Q 747 3159 1072 3276 
Q 1397 3394 1825 3394 
Q 2250 3394 2515 3294 
Q 2781 3194 2906 3042 
Q 3031 2891 3081 2659 
Q 3109 2516 3109 2141 
L 3109 1391 
Q 3109 606 3145 398 
Q 3181 191 3288 0 
L 2700 0 
Q 2613 175 2588 409 
z
M 2541 1666 
Q 2234 1541 1622 1453 
Q 1275 1403 1131 1340 
Q 988 1278 909 1158 
Q 831 1038 831 891 
Q 831 666 1001 516 
Q 1172 366 1500 366 
Q 1825 366 2078 508 
Q 2331 650 2450 897 
Q 2541 1088 2541 1459 
L 2541 1666 
z
" transform="scale(0.015625)"/>
       <path id="ArialMT-7a" d="M 125 0 
L 125 456 
L 2238 2881 
Q 1878 2863 1603 2863 
L 250 2863 
L 250 3319 
L 2963 3319 
L 2963 2947 
L 1166 841 
L 819 456 
Q 1197 484 1528 484 
L 3063 484 
L 3063 0 
L 125 0 
z
" transform="scale(0.015625)"/>
       <path id="ArialMT-69" d="M 425 3934 
L 425 4581 
L 988 4581 
L 988 3934 
L 425 3934 
z
M 425 0 
L 425 3319 
L 988 3319 
L 988 0 
L 425 0 
z
" transform="scale(0.015625)"/>
       <path id="ArialMT-20" transform="scale(0.015625)"/>
       <path id="ArialMT-50" d="M 494 0 
L 494 4581 
L 2222 4581 
Q 2678 4581 2919 4538 
Q 3256 4481 3484 4323 
Q 3713 4166 3852 3881 
Q 3991 3597 3991 3256 
Q 3991 2672 3619 2267 
Q 3247 1863 2275 1863 
L 1100 1863 
L 1100 0 
L 494 0 
z
M 1100 2403 
L 2284 2403 
Q 2872 2403 3119 2622 
Q 3366 2841 3366 3238 
Q 3366 3525 3220 3729 
Q 3075 3934 2838 4000 
Q 2684 4041 2272 4041 
L 1100 4041 
L 1100 2403 
z
" transform="scale(0.015625)"/>
       <path id="ArialMT-4d" d="M 475 0 
L 475 4581 
L 1388 4581 
L 2472 1338 
Q 2622 884 2691 659 
Q 2769 909 2934 1394 
L 4031 4581 
L 4847 4581 
L 4847 0 
L 4263 0 
L 4263 3834 
L 2931 0 
L 2384 0 
L 1059 3900 
L 1059 0 
L 475 0 
z
" transform="scale(0.015625)"/>
       <path id="ArialMT-28" d="M 1497 -1347 
Q 1031 -759 709 28 
Q 388 816 388 1659 
Q 388 2403 628 3084 
Q 909 3875 1497 4659 
L 1900 4659 
Q 1522 4009 1400 3731 
Q 1209 3300 1100 2831 
Q 966 2247 966 1656 
Q 966 153 1900 -1347 
L 1497 -1347 
z
" transform="scale(0.015625)"/>
       <path id="ArialMT-b5" d="M 3181 3319 
L 3181 0 
L 2678 0 
L 2678 394 
Q 2516 144 2356 50 
Q 2138 -78 1847 -78 
Q 1588 -78 1388 25 
Q 1238 103 1056 334 
L 1056 -1272 
L 500 -1272 
L 500 3319 
L 1056 3319 
L 1056 1913 
Q 1056 1147 1137 920 
Q 1219 694 1401 562 
Q 1584 431 1822 431 
Q 2072 431 2269 568 
Q 2466 706 2547 923 
Q 2628 1141 2628 1903 
L 2628 3319 
L 3181 3319 
z
" transform="scale(0.015625)"/>
       <path id="ArialMT-67" d="M 319 -275 
L 866 -356 
Q 900 -609 1056 -725 
Q 1266 -881 1628 -881 
Q 2019 -881 2231 -725 
Q 2444 -569 2519 -288 
Q 2563 -116 2559 434 
Q 2191 0 1641 0 
Q 956 0 581 494 
Q 206 988 206 1678 
Q 206 2153 378 2554 
Q 550 2956 876 3175 
Q 1203 3394 1644 3394 
Q 2231 3394 2613 2919 
L 2613 3319 
L 3131 3319 
L 3131 450 
Q 3131 -325 2973 -648 
Q 2816 -972 2473 -1159 
Q 2131 -1347 1631 -1347 
Q 1038 -1347 672 -1080 
Q 306 -813 319 -275 
z
M 784 1719 
Q 784 1066 1043 766 
Q 1303 466 1694 466 
Q 2081 466 2343 764 
Q 2606 1063 2606 1700 
Q 2606 2309 2336 2618 
Q 2066 2928 1684 2928 
Q 1309 2928 1046 2623 
Q 784 2319 784 1719 
z
" transform="scale(0.015625)"/>
       <path id="ArialMT-2f" d="M 0 -78 
L 1328 4659 
L 1778 4659 
L 453 -78 
L 0 -78 
z
" transform="scale(0.015625)"/>
       <path id="ArialMT-6d" d="M 422 0 
L 422 3319 
L 925 3319 
L 925 2853 
Q 1081 3097 1340 3245 
Q 1600 3394 1931 3394 
Q 2300 3394 2536 3241 
Q 2772 3088 2869 2813 
Q 3263 3394 3894 3394 
Q 4388 3394 4653 3120 
Q 4919 2847 4919 2278 
L 4919 0 
L 4359 0 
L 4359 2091 
Q 4359 2428 4304 2576 
Q 4250 2725 4106 2815 
Q 3963 2906 3769 2906 
Q 3419 2906 3187 2673 
Q 2956 2441 2956 1928 
L 2956 0 
L 2394 0 
L 2394 2156 
Q 2394 2531 2256 2718 
Q 2119 2906 1806 2906 
Q 1569 2906 1367 2781 
Q 1166 2656 1075 2415 
Q 984 2175 984 1722 
L 984 0 
L 422 0 
z
" transform="scale(0.015625)"/>
       <path id="ArialMT-b3" d="M 103 2903 
L 559 2950 
Q 622 2763 722 2694 
Q 856 2600 1041 2600 
Q 1263 2600 1397 2722 
Q 1531 2844 1531 3016 
Q 1531 3172 1418 3265 
Q 1306 3359 1034 3359 
Q 997 3359 931 3353 
Q 888 3350 863 3350 
L 931 3694 
Q 1184 3691 1301 3784 
Q 1419 3878 1419 4013 
Q 1419 4128 1325 4209 
Q 1231 4291 1047 4291 
Q 872 4291 773 4222 
Q 675 4153 603 3972 
L 156 4044 
Q 284 4375 479 4506 
Q 675 4638 1050 4638 
Q 1500 4638 1704 4470 
Q 1909 4303 1909 4053 
Q 1909 3881 1798 3747 
Q 1688 3613 1478 3553 
Q 1756 3484 1887 3326 
Q 2019 3169 2019 2956 
Q 2019 2666 1772 2450 
Q 1525 2234 1069 2234 
Q 631 2234 400 2407 
Q 169 2581 103 2903 
z
" transform="scale(0.015625)"/>
       <path id="ArialMT-29" d="M 791 -1347 
L 388 -1347 
Q 1322 153 1322 1656 
Q 1322 2244 1188 2822 
Q 1081 3291 891 3722 
Q 769 4003 388 4659 
L 791 4659 
Q 1378 3875 1659 3084 
Q 1900 2403 1900 1659 
Q 1900 816 1576 28 
Q 1253 -759 791 -1347 
z
" transform="scale(0.015625)"/>
      </defs>
      <use xlink:href="#ArialMT-43"/>
      <use xlink:href="#ArialMT-6f" x="72.216797"/>
      <use xlink:href="#ArialMT-6e" x="127.832031"/>
      <use xlink:href="#ArialMT-63" x="183.447266"/>
      <use xlink:href="#ArialMT-65" x="233.447266"/>
      <use xlink:href="#ArialMT-6e" x="289.0625"/>
      <use xlink:href="#ArialMT-74" x="344.677734"/>
      <use xlink:href="#ArialMT-72" x="372.460938"/>
      <use xlink:href="#ArialMT-61" x="405.761719"/>
      <use xlink:href="#ArialMT-7a" x="461.376953"/>
      <use xlink:href="#ArialMT-69" x="511.376953"/>
      <use xlink:href="#ArialMT-6f" x="533.59375"/>
      <use xlink:href="#ArialMT-6e" x="589.208984"/>
      <use xlink:href="#ArialMT-65" x="644.824219"/>
      <use xlink:href="#ArialMT-20" x="700.439453"/>
      <use xlink:href="#ArialMT-50" x="728.222656"/>
      <use xlink:href="#ArialMT-4d" x="794.921875"/>
      <use xlink:href="#ArialMT-31" x="878.222656"/>
      <use xlink:href="#ArialMT-30" x="933.837891"/>
      <use xlink:href="#ArialMT-20" x="989.453125"/>
      <use xlink:href="#ArialMT-28" x="1017.236328"/>
      <use xlink:href="#ArialMT-b5" x="1050.537109"/>
      <use xlink:href="#ArialMT-67" x="1108.154297"/>
      <use xlink:href="#ArialMT-2f" x="1163.769531"/>
      <use xlink:href="#ArialMT-6d" x="1191.552734"/>
      <use xlink:href="#ArialMT-b3" x="1274.853516"/>
      <use xlink:href="#ArialMT-29" x="1308.154297"/>
     </g>
    </g>
   </g>
   <g id="line2d_31">
    <path d="M 92.290909 202.997216 
L 93.408866 261.30305 
L 94.526822 291.78551 
L 95.644778 291.266461 
L 96.762735 282.910059 
L 97.880691 266.277109 
L 98.998648 272.018698 
L 100.116604 289.381109 
L 101.23456 336.400808 
L 102.352517 335.875817 
L 103.470473 270.843993 
L 104.58843 216.629343 
L 105.706386 192.863352 
L 106.824343 225.85974 
L 107.942299 213.316903 
L 109.060255 262.117113 
L 110.178212 296.91165 
L 111.296168 282.811601 
L 112.414125 312.059665 
L 113.532081 293.588452 
L 114.650038 303.914483 
L 115.767994 293.159538 
L 116.88595 253.211253 
L 118.003907 293.261179 
L 119.121863 268.835908 
L 120.23982 263.284078 
L 121.357776 277.096438 
L 122.475733 244.696654 
L 123.593689 242.513459 
L 124.711645 215.026522 
L 125.829602 160.502344 
L 126.947558 227.029596 
L 128.065515 281.926633 
L 129.183471 226.376667 
L 130.301427 257.324437 
L 131.419384 312.227148 
L 132.53734 308.005999 
L 133.655297 275.481284 
L 134.773253 239.536098 
L 135.89121 284.593474 
L 137.009166 209.049902 
L 138.127122 200.218131 
L 139.245079 208.986017 
L 141.480992 150.169328 
L 142.598948 140.841747 
L 143.716905 169.560744 
L 144.834861 233.883183 
L 145.952817 250.560245 
L 147.070774 249.637604 
L 148.18873 143.89563 
L 149.306687 192.535414 
L 150.424643 110.772451 
L 151.5426 122.873833 
L 152.660556 154.03503 
L 153.778512 228.718415 
L 154.896469 320.064024 
L 156.014425 337.060738 
L 157.132382 289.633417 
L 158.250338 259.220735 
L 159.368295 266.799163 
L 160.486251 257.887292 
L 161.604207 229.397577 
L 162.722164 230.897165 
L 163.84012 248.815394 
L 164.958077 262.633017 
L 166.076033 272.23554 
L 167.193989 279.325445 
L 168.311946 277.037906 
L 169.429902 343.341755 
L 170.547859 307.003329 
L 171.665815 283.348203 
L 172.783772 309.984487 
L 173.901728 347.257645 
L 175.019684 322.858594 
L 176.137641 292.100046 
L 177.255597 246.955766 
L 178.373554 249.295477 
L 179.49151 225.903798 
L 180.609467 194.376912 
L 181.727423 209.120104 
L 182.845379 278.613599 
L 183.963336 314.48067 
L 185.081292 337.783883 
L 186.199249 330.918706 
L 187.317205 350.621111 
L 188.435162 338.954455 
L 189.553118 309.256087 
L 190.671074 296.973831 
L 191.789031 299.264265 
L 192.906987 340.43231 
L 194.024944 330.570887 
L 195.1429 328.598603 
L 197.378813 303.857724 
L 198.496769 286.350096 
L 199.614726 262.986181 
L 200.732682 289.093638 
L 201.850639 326.555685 
L 202.968595 340.128046 
L 204.086551 310.872915 
L 205.204508 298.582689 
L 206.322464 338.95549 
L 207.440421 357.396743 
L 208.558377 337.001527 
L 209.676334 340.461429 
L 210.79429 336.107937 
L 211.912246 321.833279 
L 213.030203 319.43714 
L 214.148159 344.462476 
L 215.266116 343.536531 
L 216.384072 327.865547 
L 217.502029 317.413594 
L 218.619985 352.90126 
L 219.737941 359.087515 
L 220.855898 343.159822 
L 221.973854 319.173624 
L 223.091811 312.295612 
L 224.209767 307.014031 
L 225.327724 308.555192 
L 226.44568 344.280014 
L 227.563636 350.889555 
L 228.681593 346.930526 
L 229.799549 325.436427 
L 230.917506 298.083775 
L 232.035462 297.375432 
L 233.153418 336.780449 
L 234.271375 338.933248 
L 235.389331 329.38643 
L 236.507288 349.959629 
L 237.625244 349.653481 
L 238.743201 357.339353 
L 239.861157 351.120484 
L 240.979113 359.634919 
L 242.09707 349.397056 
L 243.215026 337.178459 
L 244.332983 340.328905 
L 245.450939 341.95223 
L 246.568896 332.654597 
L 247.686852 340.807295 
L 248.804808 333.999984 
L 249.922765 315.439258 
L 251.040721 304.188465 
L 252.158678 311.01087 
L 253.276634 334.950209 
L 254.394591 315.690292 
L 255.512547 317.634222 
L 256.630503 316.115192 
L 257.74846 320.844278 
L 258.866416 310.283473 
L 259.984373 322.94798 
L 261.102329 303.947592 
L 262.220285 319.453695 
L 263.338242 340.970206 
L 264.456198 339.742282 
L 265.574155 344.617324 
L 266.692111 326.381642 
L 267.810068 332.483851 
L 268.928024 322.384815 
L 270.04598 317.950646 
L 271.163937 329.563012 
L 273.39985 341.753053 
L 274.517806 332.800348 
L 275.635763 329.209848 
L 276.753719 321.25787 
L 277.871675 312.42317 
L 278.989632 314.407795 
L 280.107588 311.859247 
L 281.225545 308.796974 
L 282.343501 306.071822 
L 283.461458 292.966402 
L 284.579414 255.194842 
L 285.69737 306.767122 
L 286.815327 330.709393 
L 287.933283 339.186728 
L 289.05124 303.650311 
L 290.169196 286.244375 
L 291.287153 310.246016 
L 292.405109 322.950999 
L 293.523065 315.691518 
L 294.641022 325.456057 
L 295.758978 319.083976 
L 296.876935 322.815265 
L 297.994891 336.396733 
L 299.112847 333.242752 
L 300.230804 336.073759 
L 301.34876 334.911736 
L 302.466717 324.390869 
L 303.584673 309.051024 
L 305.820586 261.606988 
L 306.938542 278.305532 
L 308.056499 330.007511 
L 309.174455 329.015308 
L 310.292412 306.354257 
L 311.410368 299.69218 
L 312.528325 283.068085 
L 313.646281 277.014657 
L 314.764237 277.381547 
L 315.882194 307.64793 
L 317.00015 328.711635 
L 318.118107 335.941648 
L 319.236063 316.345525 
L 320.35402 310.630904 
L 321.471976 344.033438 
L 322.589932 359.894835 
L 323.707889 347.87487 
L 324.825845 318.552079 
L 325.943802 321.886186 
L 327.061758 342.945401 
L 329.297671 320.709558 
L 330.415627 315.798598 
L 331.533584 317.210959 
L 332.65154 331.819337 
L 333.769497 352.85221 
L 334.887453 361.939468 
L 336.005409 362.482078 
L 337.123366 347.338929 
L 338.241322 329.441231 
L 339.359279 318.514867 
L 340.477235 314.838355 
L 341.595192 314.599115 
L 342.713148 319.50363 
L 343.831104 313.910903 
L 344.949061 314.228863 
L 346.067017 311.568741 
L 347.184974 316.163047 
L 348.30293 306.06584 
L 349.420887 283.851444 
L 350.538843 292.640014 
L 351.656799 290.053547 
L 352.774756 283.31949 
L 353.892712 274.373914 
L 355.010669 270.858056 
L 356.128625 279.237154 
L 358.364538 320.593866 
L 359.482494 352.46869 
L 360.600451 360.046289 
L 361.718407 349.754245 
L 362.836364 332.206045 
L 363.95432 324.721249 
L 365.072276 313.273326 
L 366.190233 314.906709 
L 367.308189 301.685848 
L 368.426146 320.022068 
L 370.662059 299.505452 
L 372.897971 280.798801 
L 374.015928 271.307521 
L 375.133884 255.754649 
L 376.251841 258.212509 
L 377.369797 292.862446 
L 378.487754 320.323788 
L 379.60571 333.341866 
L 380.723666 314.785309 
L 381.841623 313.964939 
L 382.959579 288.684289 
L 384.077536 317.077799 
L 385.195492 311.178225 
L 386.313449 327.107953 
L 387.431405 335.048632 
L 388.549361 352.621197 
L 389.667318 352.94588 
L 390.785274 334.475464 
L 393.021187 287.479544 
L 394.139144 271.461852 
L 396.375056 242.45205 
L 397.493013 246.955766 
L 398.610969 224.709768 
L 399.728926 219.524425 
L 400.846882 243.780619 
L 401.964838 283.89664 
L 403.082795 250.4486 
L 404.200751 245.546438 
L 405.318708 267.095043 
L 406.436664 245.948608 
L 407.554621 228.899905 
L 408.672577 191.540669 
L 409.790533 222.695014 
L 410.90849 267.895382 
L 413.144403 316.024097 
L 414.262359 331.364148 
L 415.380316 295.275667 
L 416.498272 275.938963 
L 417.616228 305.122332 
L 418.734185 327.927458 
L 419.852141 328.868076 
L 420.970098 337.82249 
L 422.088054 314.463758 
L 423.206011 340.57993 
L 424.323967 310.280262 
L 425.441923 286.023788 
L 426.55988 331.281743 
L 427.677836 314.325347 
L 428.795793 330.28896 
L 429.913749 321.375495 
L 431.031705 345.08775 
L 432.149662 334.436674 
L 433.267618 346.06568 
L 434.385575 349.498185 
L 435.503531 345.212588 
L 436.621488 352.104802 
L 437.739444 309.580303 
L 438.8574 298.222759 
L 439.975357 296.854148 
L 441.093313 309.203981 
L 442.21127 326.657954 
L 443.329226 318.942868 
L 444.447183 301.874382 
L 445.565139 272.616828 
L 446.683095 229.577752 
L 447.801052 280.453608 
L 448.919008 281.687229 
L 450.036965 313.572535 
L 451.154921 319.828581 
L 452.272878 278.172057 
L 453.390834 220.594857 
L 454.50879 206.055706 
L 455.626747 272.150332 
L 456.744703 266.210617 
L 457.86266 254.532769 
L 458.980616 341.956858 
L 460.098573 331.864273 
L 461.216529 280.52244 
L 462.334485 278.75083 
L 463.452442 288.328277 
L 464.570398 302.054854 
L 465.688355 290.163503 
L 466.806311 334.716488 
L 467.924267 327.228819 
L 469.042224 286.962615 
L 470.16018 260.637188 
L 471.278137 241.355983 
L 472.396093 239.335422 
L 473.51405 270.951817 
L 474.632006 264.894143 
L 475.749962 291.68903 
L 476.867919 244.570129 
L 477.985875 231.293795 
L 479.103832 257.456874 
L 480.221788 248.338115 
L 481.339745 257.873633 
L 482.457701 270.981948 
L 483.575657 248.642293 
L 484.693614 212.288143 
L 485.81157 216.843024 
L 486.929527 194.290197 
L 488.047483 209.167227 
L 489.16544 323.920798 
L 490.283396 322.944037 
L 491.401352 299.754296 
L 492.519309 263.277509 
L 493.637265 218.647471 
L 494.755222 221.147387 
L 495.873178 225.527759 
L 496.991134 228.609399 
L 498.109091 213.890619 
L 498.109091 213.890619 
" clip-path="url(#pa4440f9d90)" style="fill: none; stroke: #1f77b4; stroke-width: 3; stroke-linecap: round"/>
   </g>
   <g id="line2d_32">
    <path d="M 72 225.55624 
L 518.4 225.55624 
" clip-path="url(#pa4440f9d90)" style="fill: none; stroke-dasharray: 5.55,2.4; stroke-dashoffset: 0; stroke: #000000; stroke-width: 1.5"/>
   </g>
   <g id="line2d_33">
    <path d="M 72 225.55624 
L 518.4 225.55624 
" clip-path="url(#pa4440f9d90)" style="fill: none; stroke-dasharray: 5.55,2.4; stroke-dashoffset: 0; stroke: #808080; stroke-width: 1.5"/>
   </g>
   <g id="line2d_34">
    <path d="M 72 66.63248 
L 518.4 66.63248 
" clip-path="url(#pa4440f9d90)" style="fill: none; stroke-dasharray: 5.55,2.4; stroke-dashoffset: 0; stroke: #ff0000; stroke-width: 1.5"/>
   </g>
   <g id="patch_3">
    <path d="M 72 384.48 
L 72 51.84 
" style="fill: none; stroke: #262626; stroke-width: 1.25; stroke-linejoin: miter; stroke-linecap: square"/>
   </g>
   <g id="patch_4">
    <path d="M 518.4 384.48 
L 518.4 51.84 
" style="fill: none; stroke: #262626; stroke-width: 1.25; stroke-linejoin: miter; stroke-linecap: square"/>
   </g>
   <g id="patch_5">
    <path d="M 72 384.48 
L 518.4 384.48 
" style="fill: none; stroke: #262626; stroke-width: 1.25; stroke-linejoin: miter; stroke-linecap: square"/>
   </g>
   <g id="patch_6">
    <path d="M 72 51.84 
L 518.4 51.84 
" style="fill: none; stroke: #262626; stroke-width: 1.25; stroke-linejoin: miter; stroke-linecap: square"/>
   </g>
   <g id="patch_7">
    <path d="M 226.825301 196.091507 
Q 221.410461 209.894109 215.99562 223.69671 
" style="fill: none; stroke: #000000; stroke-linecap: round"/>
   </g>
   <g id="text_32">
    <!-- Limite UE / OMS -->
    <g style="fill: #262626" transform="translate(192.906987 190.239849) scale(0.1 -0.1)">
     <defs>
      <path id="ArialMT-4c" d="M 469 0 
L 469 4581 
L 1075 4581 
L 1075 541 
L 3331 541 
L 3331 0 
L 469 0 
z
" transform="scale(0.015625)"/>
      <path id="ArialMT-55" d="M 3500 4581 
L 4106 4581 
L 4106 1934 
Q 4106 1244 3950 837 
Q 3794 431 3386 176 
Q 2978 -78 2316 -78 
Q 1672 -78 1262 144 
Q 853 366 678 786 
Q 503 1206 503 1934 
L 503 4581 
L 1109 4581 
L 1109 1938 
Q 1109 1341 1220 1058 
Q 1331 775 1601 622 
Q 1872 469 2263 469 
Q 2931 469 3215 772 
Q 3500 1075 3500 1938 
L 3500 4581 
z
" transform="scale(0.015625)"/>
      <path id="ArialMT-45" d="M 506 0 
L 506 4581 
L 3819 4581 
L 3819 4041 
L 1113 4041 
L 1113 2638 
L 3647 2638 
L 3647 2100 
L 1113 2100 
L 1113 541 
L 3925 541 
L 3925 0 
L 506 0 
z
" transform="scale(0.015625)"/>
      <path id="ArialMT-4f" d="M 309 2231 
Q 309 3372 921 4017 
Q 1534 4663 2503 4663 
Q 3138 4663 3647 4359 
Q 4156 4056 4423 3514 
Q 4691 2972 4691 2284 
Q 4691 1588 4409 1038 
Q 4128 488 3612 205 
Q 3097 -78 2500 -78 
Q 1853 -78 1343 234 
Q 834 547 571 1087 
Q 309 1628 309 2231 
z
M 934 2222 
Q 934 1394 1379 917 
Q 1825 441 2497 441 
Q 3181 441 3623 922 
Q 4066 1403 4066 2288 
Q 4066 2847 3877 3264 
Q 3688 3681 3323 3911 
Q 2959 4141 2506 4141 
Q 1863 4141 1398 3698 
Q 934 3256 934 2222 
z
" transform="scale(0.015625)"/>
      <path id="ArialMT-53" d="M 288 1472 
L 859 1522 
Q 900 1178 1048 958 
Q 1197 738 1509 602 
Q 1822 466 2213 466 
Q 2559 466 2825 569 
Q 3091 672 3220 851 
Q 3350 1031 3350 1244 
Q 3350 1459 3225 1620 
Q 3100 1781 2813 1891 
Q 2628 1963 1997 2114 
Q 1366 2266 1113 2400 
Q 784 2572 623 2826 
Q 463 3081 463 3397 
Q 463 3744 659 4045 
Q 856 4347 1234 4503 
Q 1613 4659 2075 4659 
Q 2584 4659 2973 4495 
Q 3363 4331 3572 4012 
Q 3781 3694 3797 3291 
L 3216 3247 
Q 3169 3681 2898 3903 
Q 2628 4125 2100 4125 
Q 1550 4125 1298 3923 
Q 1047 3722 1047 3438 
Q 1047 3191 1225 3031 
Q 1400 2872 2139 2705 
Q 2878 2538 3153 2413 
Q 3553 2228 3743 1945 
Q 3934 1663 3934 1294 
Q 3934 928 3725 604 
Q 3516 281 3123 101 
Q 2731 -78 2241 -78 
Q 1619 -78 1198 103 
Q 778 284 539 648 
Q 300 1013 288 1472 
z
" transform="scale(0.015625)"/>
     </defs>
     <use xlink:href="#ArialMT-4c"/>
     <use xlink:href="#ArialMT-69" x="55.615234"/>
     <use xlink:href="#ArialMT-6d" x="77.832031"/>
     <use xlink:href="#ArialMT-69" x="161.132812"/>
     <use xlink:href="#ArialMT-74" x="183.349609"/>
     <use xlink:href="#ArialMT-65" x="211.132812"/>
     <use xlink:href="#ArialMT-20" x="266.748047"/>
     <use xlink:href="#ArialMT-55" x="294.53125"/>
     <use xlink:href="#ArialMT-45" x="366.748047"/>
     <use xlink:href="#ArialMT-20" x="433.447266"/>
     <use xlink:href="#ArialMT-2f" x="461.230469"/>
     <use xlink:href="#ArialMT-20" x="489.013672"/>
     <use xlink:href="#ArialMT-4f" x="516.796875"/>
     <use xlink:href="#ArialMT-4d" x="594.580078"/>
     <use xlink:href="#ArialMT-53" x="677.880859"/>
    </g>
   </g>
   <g id="text_33">
    <!-- Soglia proposta per l'allarme -->
    <g style="fill: #262626" transform="translate(192.906987 80.759036) scale(0.1 -0.1)">
     <defs>
      <path id="ArialMT-6c" d="M 409 0 
L 409 4581 
L 972 4581 
L 972 0 
L 409 0 
z
" transform="scale(0.015625)"/>
      <path id="ArialMT-70" d="M 422 -1272 
L 422 3319 
L 934 3319 
L 934 2888 
Q 1116 3141 1344 3267 
Q 1572 3394 1897 3394 
Q 2322 3394 2647 3175 
Q 2972 2956 3137 2557 
Q 3303 2159 3303 1684 
Q 3303 1175 3120 767 
Q 2938 359 2589 142 
Q 2241 -75 1856 -75 
Q 1575 -75 1351 44 
Q 1128 163 984 344 
L 984 -1272 
L 422 -1272 
z
M 931 1641 
Q 931 1000 1190 694 
Q 1450 388 1819 388 
Q 2194 388 2461 705 
Q 2728 1022 2728 1688 
Q 2728 2322 2467 2637 
Q 2206 2953 1844 2953 
Q 1484 2953 1207 2617 
Q 931 2281 931 1641 
z
" transform="scale(0.015625)"/>
      <path id="ArialMT-73" d="M 197 991 
L 753 1078 
Q 800 744 1014 566 
Q 1228 388 1613 388 
Q 2000 388 2187 545 
Q 2375 703 2375 916 
Q 2375 1106 2209 1216 
Q 2094 1291 1634 1406 
Q 1016 1563 777 1677 
Q 538 1791 414 1992 
Q 291 2194 291 2438 
Q 291 2659 392 2848 
Q 494 3038 669 3163 
Q 800 3259 1026 3326 
Q 1253 3394 1513 3394 
Q 1903 3394 2198 3281 
Q 2494 3169 2634 2976 
Q 2775 2784 2828 2463 
L 2278 2388 
Q 2241 2644 2061 2787 
Q 1881 2931 1553 2931 
Q 1166 2931 1000 2803 
Q 834 2675 834 2503 
Q 834 2394 903 2306 
Q 972 2216 1119 2156 
Q 1203 2125 1616 2013 
Q 2213 1853 2448 1751 
Q 2684 1650 2818 1456 
Q 2953 1263 2953 975 
Q 2953 694 2789 445 
Q 2625 197 2315 61 
Q 2006 -75 1616 -75 
Q 969 -75 630 194 
Q 291 463 197 991 
z
" transform="scale(0.015625)"/>
      <path id="ArialMT-27" d="M 425 2959 
L 281 3816 
L 281 4581 
L 922 4581 
L 922 3816 
L 772 2959 
L 425 2959 
z
" transform="scale(0.015625)"/>
     </defs>
     <use xlink:href="#ArialMT-53"/>
     <use xlink:href="#ArialMT-6f" x="66.699219"/>
     <use xlink:href="#ArialMT-67" x="122.314453"/>
     <use xlink:href="#ArialMT-6c" x="177.929688"/>
     <use xlink:href="#ArialMT-69" x="200.146484"/>
     <use xlink:href="#ArialMT-61" x="222.363281"/>
     <use xlink:href="#ArialMT-20" x="277.978516"/>
     <use xlink:href="#ArialMT-70" x="305.761719"/>
     <use xlink:href="#ArialMT-72" x="361.376953"/>
     <use xlink:href="#ArialMT-6f" x="394.677734"/>
     <use xlink:href="#ArialMT-70" x="450.292969"/>
     <use xlink:href="#ArialMT-6f" x="505.908203"/>
     <use xlink:href="#ArialMT-73" x="561.523438"/>
     <use xlink:href="#ArialMT-74" x="611.523438"/>
     <use xlink:href="#ArialMT-61" x="639.306641"/>
     <use xlink:href="#ArialMT-20" x="694.921875"/>
     <use xlink:href="#ArialMT-70" x="722.705078"/>
     <use xlink:href="#ArialMT-65" x="778.320312"/>
     <use xlink:href="#ArialMT-72" x="833.935547"/>
     <use xlink:href="#ArialMT-20" x="867.236328"/>
     <use xlink:href="#ArialMT-6c" x="895.019531"/>
     <use xlink:href="#ArialMT-27" x="917.236328"/>
     <use xlink:href="#ArialMT-61" x="936.328125"/>
     <use xlink:href="#ArialMT-6c" x="991.943359"/>
     <use xlink:href="#ArialMT-6c" x="1014.160156"/>
     <use xlink:href="#ArialMT-61" x="1036.376953"/>
     <use xlink:href="#ArialMT-72" x="1091.992188"/>
     <use xlink:href="#ArialMT-6d" x="1125.292969"/>
     <use xlink:href="#ArialMT-65" x="1208.59375"/>
    </g>
   </g>
   <g id="text_34">
    <!-- Inquinamento PM10 in Lombardia (2023-01-01 - 2023-12-31) -->
    <g style="fill: #262626" transform="translate(132.780937 41.84) scale(0.12 -0.12)">
     <defs>
      <path id="ArialMT-49" d="M 597 0 
L 597 4581 
L 1203 4581 
L 1203 0 
L 597 0 
z
" transform="scale(0.015625)"/>
      <path id="ArialMT-71" d="M 2538 -1272 
L 2538 353 
Q 2406 169 2170 47 
Q 1934 -75 1669 -75 
Q 1078 -75 651 397 
Q 225 869 225 1691 
Q 225 2191 398 2587 
Q 572 2984 901 3189 
Q 1231 3394 1625 3394 
Q 2241 3394 2594 2875 
L 2594 3319 
L 3100 3319 
L 3100 -1272 
L 2538 -1272 
z
M 803 1669 
Q 803 1028 1072 708 
Q 1341 388 1716 388 
Q 2075 388 2334 692 
Q 2594 997 2594 1619 
Q 2594 2281 2320 2615 
Q 2047 2950 1678 2950 
Q 1313 2950 1058 2639 
Q 803 2328 803 1669 
z
" transform="scale(0.015625)"/>
      <path id="ArialMT-75" d="M 2597 0 
L 2597 488 
Q 2209 -75 1544 -75 
Q 1250 -75 995 37 
Q 741 150 617 320 
Q 494 491 444 738 
Q 409 903 409 1263 
L 409 3319 
L 972 3319 
L 972 1478 
Q 972 1038 1006 884 
Q 1059 663 1231 536 
Q 1403 409 1656 409 
Q 1909 409 2131 539 
Q 2353 669 2445 892 
Q 2538 1116 2538 1541 
L 2538 3319 
L 3100 3319 
L 3100 0 
L 2597 0 
z
" transform="scale(0.015625)"/>
      <path id="ArialMT-62" d="M 941 0 
L 419 0 
L 419 4581 
L 981 4581 
L 981 2947 
Q 1338 3394 1891 3394 
Q 2197 3394 2470 3270 
Q 2744 3147 2920 2923 
Q 3097 2700 3197 2384 
Q 3297 2069 3297 1709 
Q 3297 856 2875 390 
Q 2453 -75 1863 -75 
Q 1275 -75 941 416 
L 941 0 
z
M 934 1684 
Q 934 1088 1097 822 
Q 1363 388 1816 388 
Q 2184 388 2453 708 
Q 2722 1028 2722 1663 
Q 2722 2313 2464 2622 
Q 2206 2931 1841 2931 
Q 1472 2931 1203 2611 
Q 934 2291 934 1684 
z
" transform="scale(0.015625)"/>
      <path id="ArialMT-64" d="M 2575 0 
L 2575 419 
Q 2259 -75 1647 -75 
Q 1250 -75 917 144 
Q 584 363 401 755 
Q 219 1147 219 1656 
Q 219 2153 384 2558 
Q 550 2963 881 3178 
Q 1213 3394 1622 3394 
Q 1922 3394 2156 3267 
Q 2391 3141 2538 2938 
L 2538 4581 
L 3097 4581 
L 3097 0 
L 2575 0 
z
M 797 1656 
Q 797 1019 1065 703 
Q 1334 388 1700 388 
Q 2069 388 2326 689 
Q 2584 991 2584 1609 
Q 2584 2291 2321 2609 
Q 2059 2928 1675 2928 
Q 1300 2928 1048 2622 
Q 797 2316 797 1656 
z
" transform="scale(0.015625)"/>
     </defs>
     <use xlink:href="#ArialMT-49"/>
     <use xlink:href="#ArialMT-6e" x="27.783203"/>
     <use xlink:href="#ArialMT-71" x="83.398438"/>
     <use xlink:href="#ArialMT-75" x="139.013672"/>
     <use xlink:href="#ArialMT-69" x="194.628906"/>
     <use xlink:href="#ArialMT-6e" x="216.845703"/>
     <use xlink:href="#ArialMT-61" x="272.460938"/>
     <use xlink:href="#ArialMT-6d" x="328.076172"/>
     <use xlink:href="#ArialMT-65" x="411.376953"/>
     <use xlink:href="#ArialMT-6e" x="466.992188"/>
     <use xlink:href="#ArialMT-74" x="522.607422"/>
     <use xlink:href="#ArialMT-6f" x="550.390625"/>
     <use xlink:href="#ArialMT-20" x="606.005859"/>
     <use xlink:href="#ArialMT-50" x="633.789062"/>
     <use xlink:href="#ArialMT-4d" x="700.488281"/>
     <use xlink:href="#ArialMT-31" x="783.789062"/>
     <use xlink:href="#ArialMT-30" x="839.404297"/>
     <use xlink:href="#ArialMT-20" x="895.019531"/>
     <use xlink:href="#ArialMT-69" x="922.802734"/>
     <use xlink:href="#ArialMT-6e" x="945.019531"/>
     <use xlink:href="#ArialMT-20" x="1000.634766"/>
     <use xlink:href="#ArialMT-4c" x="1028.417969"/>
     <use xlink:href="#ArialMT-6f" x="1084.033203"/>
     <use xlink:href="#ArialMT-6d" x="1139.648438"/>
     <use xlink:href="#ArialMT-62" x="1222.949219"/>
     <use xlink:href="#ArialMT-61" x="1278.564453"/>
     <use xlink:href="#ArialMT-72" x="1334.179688"/>
     <use xlink:href="#ArialMT-64" x="1367.480469"/>
     <use xlink:href="#ArialMT-69" x="1423.095703"/>
     <use xlink:href="#ArialMT-61" x="1445.3125"/>
     <use xlink:href="#ArialMT-20" x="1500.927734"/>
     <use xlink:href="#ArialMT-28" x="1528.710938"/>
     <use xlink:href="#ArialMT-32" x="1562.011719"/>
     <use xlink:href="#ArialMT-30" x="1617.626953"/>
     <use xlink:href="#ArialMT-32" x="1673.242188"/>
     <use xlink:href="#ArialMT-33" x="1728.857422"/>
     <use xlink:href="#ArialMT-2d" x="1784.472656"/>
     <use xlink:href="#ArialMT-30" x="1817.773438"/>
     <use xlink:href="#ArialMT-31" x="1873.388672"/>
     <use xlink:href="#ArialMT-2d" x="1929.003906"/>
     <use xlink:href="#ArialMT-30" x="1962.304688"/>
     <use xlink:href="#ArialMT-31" x="2017.919922"/>
     <use xlink:href="#ArialMT-20" x="2073.535156"/>
     <use xlink:href="#ArialMT-2d" x="2101.318359"/>
     <use xlink:href="#ArialMT-20" x="2134.619141"/>
     <use xlink:href="#ArialMT-32" x="2162.402344"/>
     <use xlink:href="#ArialMT-30" x="2218.017578"/>
     <use xlink:href="#ArialMT-32" x="2273.632812"/>
     <use xlink:href="#ArialMT-33" x="2329.248047"/>
     <use xlink:href="#ArialMT-2d" x="2384.863281"/>
     <use xlink:href="#ArialMT-31" x="2418.164062"/>
     <use xlink:href="#ArialMT-32" x="2473.779297"/>
     <use xlink:href="#ArialMT-2d" x="2529.394531"/>
     <use xlink:href="#ArialMT-33" x="2562.695312"/>
     <use xlink:href="#ArialMT-31" x="2618.310547"/>
     <use xlink:href="#ArialMT-29" x="2673.925781"/>
    </g>
   </g>
   <g id="legend_1">
    <g id="line2d_35">
     <path d="M 81 64.619687 
L 91 64.619687 
L 101 64.619687 
" style="fill: none; stroke: #1f77b4; stroke-width: 4; stroke-linecap: round"/>
    </g>
    <g id="text_35">
     <!-- ARPA (media di 91 stazioni) -->
     <g style="fill: #262626" transform="translate(109 68.119687) scale(0.1 -0.1)">
      <defs>
       <path id="ArialMT-41" d="M -9 0 
L 1750 4581 
L 2403 4581 
L 4278 0 
L 3588 0 
L 3053 1388 
L 1138 1388 
L 634 0 
L -9 0 
z
M 1313 1881 
L 2866 1881 
L 2388 3150 
Q 2169 3728 2063 4100 
Q 1975 3659 1816 3225 
L 1313 1881 
z
" transform="scale(0.015625)"/>
       <path id="ArialMT-52" d="M 503 0 
L 503 4581 
L 2534 4581 
Q 3147 4581 3465 4457 
Q 3784 4334 3975 4021 
Q 4166 3709 4166 3331 
Q 4166 2844 3850 2509 
Q 3534 2175 2875 2084 
Q 3116 1969 3241 1856 
Q 3506 1613 3744 1247 
L 4541 0 
L 3778 0 
L 3172 953 
Q 2906 1366 2734 1584 
Q 2563 1803 2427 1890 
Q 2291 1978 2150 2013 
Q 2047 2034 1813 2034 
L 1109 2034 
L 1109 0 
L 503 0 
z
M 1109 2559 
L 2413 2559 
Q 2828 2559 3062 2645 
Q 3297 2731 3419 2920 
Q 3541 3109 3541 3331 
Q 3541 3656 3305 3865 
Q 3069 4075 2559 4075 
L 1109 4075 
L 1109 2559 
z
" transform="scale(0.015625)"/>
      </defs>
      <use xlink:href="#ArialMT-41"/>
      <use xlink:href="#ArialMT-52" x="66.699219"/>
      <use xlink:href="#ArialMT-50" x="138.916016"/>
      <use xlink:href="#ArialMT-41" x="198.240234"/>
      <use xlink:href="#ArialMT-20" x="259.439453"/>
      <use xlink:href="#ArialMT-28" x="287.222656"/>
      <use xlink:href="#ArialMT-6d" x="320.523438"/>
      <use xlink:href="#ArialMT-65" x="403.824219"/>
      <use xlink:href="#ArialMT-64" x="459.439453"/>
      <use xlink:href="#ArialMT-69" x="515.054688"/>
      <use xlink:href="#ArialMT-61" x="537.271484"/>
      <use xlink:href="#ArialMT-20" x="592.886719"/>
      <use xlink:href="#ArialMT-64" x="620.669922"/>
      <use xlink:href="#ArialMT-69" x="676.285156"/>
      <use xlink:href="#ArialMT-20" x="698.501953"/>
      <use xlink:href="#ArialMT-39" x="726.285156"/>
      <use xlink:href="#ArialMT-31" x="781.900391"/>
      <use xlink:href="#ArialMT-20" x="837.515625"/>
      <use xlink:href="#ArialMT-73" x="865.298828"/>
      <use xlink:href="#ArialMT-74" x="915.298828"/>
      <use xlink:href="#ArialMT-61" x="943.082031"/>
      <use xlink:href="#ArialMT-7a" x="998.697266"/>
      <use xlink:href="#ArialMT-69" x="1048.697266"/>
      <use xlink:href="#ArialMT-6f" x="1070.914062"/>
      <use xlink:href="#ArialMT-6e" x="1126.529297"/>
      <use xlink:href="#ArialMT-69" x="1182.144531"/>
      <use xlink:href="#ArialMT-29" x="1204.361328"/>
     </g>
    </g>
   </g>
  </g>
 </g>
 <defs>
  <clipPath id="pa4440f9d90">
   <rect x="72" y="51.84" width="446.4" height="332.64"/>
  </clipPath>
 </defs>
</svg>
